<?xml version="1.0" encoding="UTF-8" standalone="no"?>
<!DOCTYPE svg PUBLIC "-//W3C//DTD SVG 1.1//EN"
 "http://www.w3.org/Graphics/SVG/1.1/DTD/svg11.dtd">
<!-- Generated by graphviz version 2.43.0 (0)
 -->
<!-- Title: G Pages: 1 -->
<svg width="307pt" height="405pt"
 viewBox="0.00 0.00 230.00 304.00" xmlns="http://www.w3.org/2000/svg" xmlns:xlink="http://www.w3.org/1999/xlink">
<g id="graph0" class="graph" transform="scale(0.75 0.75) rotate(0) translate(4 300)">
<title>G</title>
<polygon fill="white" stroke="transparent" points="-4,4 -4,-300 226,-300 226,4 -4,4"/>
<!-- 140421238192784 -->
<g id="node1" class="node">
<title>140421238192784</title>
<polygon fill="none" stroke="black" points="0,-249.5 0,-295.5 222,-295.5 222,-249.5 0,-249.5"/>
<text text-anchor="middle" x="41" y="-280.3" font-family="Times,serif" font-size="14.00">dense_input</text>
<polyline fill="none" stroke="black" points="0,-272.5 82,-272.5 "/>
<text text-anchor="middle" x="41" y="-257.3" font-family="Times,serif" font-size="14.00">InputLayer</text>
<polyline fill="none" stroke="black" points="82,-249.5 82,-295.5 "/>
<text text-anchor="middle" x="109.5" y="-280.3" font-family="Times,serif" font-size="14.00">input:</text>
<polyline fill="none" stroke="black" points="82,-272.5 137,-272.5 "/>
<text text-anchor="middle" x="109.5" y="-257.3" font-family="Times,serif" font-size="14.00">output:</text>
<polyline fill="none" stroke="black" points="137,-249.5 137,-295.5 "/>
<text text-anchor="middle" x="179.5" y="-280.3" font-family="Times,serif" font-size="14.00">[(None, 28)]</text>
<polyline fill="none" stroke="black" points="137,-272.5 222,-272.5 "/>
<text text-anchor="middle" x="179.5" y="-257.3" font-family="Times,serif" font-size="14.00">[(None, 28)]</text>
</g>
<!-- 140421238192256 -->
<g id="node2" class="node">
<title>140421238192256</title>
<polygon fill="none" stroke="black" points="17,-166.5 17,-212.5 205,-212.5 205,-166.5 17,-166.5"/>
<text text-anchor="middle" x="42" y="-197.3" font-family="Times,serif" font-size="14.00">dense</text>
<polyline fill="none" stroke="black" points="17,-189.5 67,-189.5 "/>
<text text-anchor="middle" x="42" y="-174.3" font-family="Times,serif" font-size="14.00">Dense</text>
<polyline fill="none" stroke="black" points="67,-166.5 67,-212.5 "/>
<text text-anchor="middle" x="94.5" y="-197.3" font-family="Times,serif" font-size="14.00">input:</text>
<polyline fill="none" stroke="black" points="67,-189.5 122,-189.5 "/>
<text text-anchor="middle" x="94.5" y="-174.3" font-family="Times,serif" font-size="14.00">output:</text>
<polyline fill="none" stroke="black" points="122,-166.5 122,-212.5 "/>
<text text-anchor="middle" x="163.5" y="-197.3" font-family="Times,serif" font-size="14.00">(None, 28)</text>
<polyline fill="none" stroke="black" points="122,-189.5 205,-189.5 "/>
<text text-anchor="middle" x="163.5" y="-174.3" font-family="Times,serif" font-size="14.00">(None, 128)</text>
</g>
<!-- 140421238192784&#45;&gt;140421238192256 -->
<g id="edge1" class="edge">
<title>140421238192784&#45;&gt;140421238192256</title>
<path fill="none" stroke="black" d="M111,-249.37C111,-241.15 111,-231.66 111,-222.73"/>
<polygon fill="black" stroke="black" points="114.5,-222.61 111,-212.61 107.5,-222.61 114.5,-222.61"/>
</g>
<!-- 140421228676576 -->
<g id="node3" class="node">
<title>140421228676576</title>
<polygon fill="none" stroke="black" points="11.5,-83.5 11.5,-129.5 210.5,-129.5 210.5,-83.5 11.5,-83.5"/>
<text text-anchor="middle" x="42" y="-114.3" font-family="Times,serif" font-size="14.00">dense_1</text>
<polyline fill="none" stroke="black" points="11.5,-106.5 72.5,-106.5 "/>
<text text-anchor="middle" x="42" y="-91.3" font-family="Times,serif" font-size="14.00">Dense</text>
<polyline fill="none" stroke="black" points="72.5,-83.5 72.5,-129.5 "/>
<text text-anchor="middle" x="100" y="-114.3" font-family="Times,serif" font-size="14.00">input:</text>
<polyline fill="none" stroke="black" points="72.5,-106.5 127.5,-106.5 "/>
<text text-anchor="middle" x="100" y="-91.3" font-family="Times,serif" font-size="14.00">output:</text>
<polyline fill="none" stroke="black" points="127.5,-83.5 127.5,-129.5 "/>
<text text-anchor="middle" x="169" y="-114.3" font-family="Times,serif" font-size="14.00">(None, 128)</text>
<polyline fill="none" stroke="black" points="127.5,-106.5 210.5,-106.5 "/>
<text text-anchor="middle" x="169" y="-91.3" font-family="Times,serif" font-size="14.00">(None, 128)</text>
</g>
<!-- 140421238192256&#45;&gt;140421228676576 -->
<g id="edge2" class="edge">
<title>140421238192256&#45;&gt;140421228676576</title>
<path fill="none" stroke="black" d="M111,-166.37C111,-158.15 111,-148.66 111,-139.73"/>
<polygon fill="black" stroke="black" points="114.5,-139.61 111,-129.61 107.5,-139.61 114.5,-139.61"/>
</g>
<!-- 140421228680032 -->
<g id="node4" class="node">
<title>140421228680032</title>
<polygon fill="none" stroke="black" points="11.5,-0.5 11.5,-46.5 210.5,-46.5 210.5,-0.5 11.5,-0.5"/>
<text text-anchor="middle" x="42" y="-31.3" font-family="Times,serif" font-size="14.00">dense_2</text>
<polyline fill="none" stroke="black" points="11.5,-23.5 72.5,-23.5 "/>
<text text-anchor="middle" x="42" y="-8.3" font-family="Times,serif" font-size="14.00">Dense</text>
<polyline fill="none" stroke="black" points="72.5,-0.5 72.5,-46.5 "/>
<text text-anchor="middle" x="100" y="-31.3" font-family="Times,serif" font-size="14.00">input:</text>
<polyline fill="none" stroke="black" points="72.5,-23.5 127.5,-23.5 "/>
<text text-anchor="middle" x="100" y="-8.3" font-family="Times,serif" font-size="14.00">output:</text>
<polyline fill="none" stroke="black" points="127.5,-0.5 127.5,-46.5 "/>
<text text-anchor="middle" x="169" y="-31.3" font-family="Times,serif" font-size="14.00">(None, 128)</text>
<polyline fill="none" stroke="black" points="127.5,-23.5 210.5,-23.5 "/>
<text text-anchor="middle" x="169" y="-8.3" font-family="Times,serif" font-size="14.00">(None, 45)</text>
</g>
<!-- 140421228676576&#45;&gt;140421228680032 -->
<g id="edge3" class="edge">
<title>140421228676576&#45;&gt;140421228680032</title>
<path fill="none" stroke="black" d="M111,-83.37C111,-75.15 111,-65.66 111,-56.73"/>
<polygon fill="black" stroke="black" points="114.5,-56.61 111,-46.61 107.5,-56.61 114.5,-56.61"/>
</g>
</g>
</svg>
